<svg width="1400" height="1400" version="1.1" xmlns="http://www.w3.org/2000/svg" desc="Created with imagetracer.js version 1.2.6" ><path fill="rgb(39,74,37)" stroke="rgb(39,74,37)" stroke-width="1" opacity="0.9372549019607843" d="M 1170.5 382 L 1172 382.5 L 1172 408.5 L 1169 423.5 L 1164 431.5 L 1160 443.5 L 1156.5 463 L 1145 437.5 Q 1145.6 431.4 1143 428.5 L 1143 418.5 Q 1153.8 397.3 1170.5 382 Z " /><path fill="rgb(39,74,37)" stroke="rgb(39,74,37)" stroke-width="1" opacity="0.9372549019607843" d="M 1234.5 394 Q 1238.9 392.5 1238 395.5 L 1218 434.5 L 1203.5 452 Q 1191.3 461.8 1172 464.5 L 1186.5 465 L 1210.5 459 L 1246 442 Q 1232.9 466.7 1212.5 485 Q 1208.3 489.3 1198.5 488 L 1182.5 484 Q 1174.1 480.4 1169 473.5 L 1165.5 465 L 1160 466 L 1161 450.5 L 1165 439.5 Q 1170.8 428.8 1179.5 421 Q 1201.3 401.8 1234.5 394 Z " /><path fill="rgb(39,74,37)" stroke="rgb(39,74,37)" stroke-width="1" opacity="0.9372549019607843" d="M 271 463 L 453 463 L 453 855.5 L 452 856.5 L 451 873.5 L 445 903.5 L 440 920.5 L 432 940.5 L 415 969.5 L 390.5 996 Q 371 1012.5 343.5 1021 L 317.5 1026 L 290.5 1027 L 289.5 1026 L 279.5 1026 L 278.5 1025 L 271.5 1025 L 261.5 1023 L 239.5 1016 Q 209.6 1002.9 190 979.5 Q 174.2 961.3 164 937.5 L 155 913.5 L 149 890.5 L 146 873.5 L 146 866.5 L 145 865.5 L 145 857.5 L 144 856.5 L 144 789 L 180.5 789 L 181.5 788 L 183 789.5 L 183 848.5 L 184 849.5 L 185 867.5 L 190 892.5 L 197 914.5 L 207 935.5 L 225 960 L 245.5 975 L 267.5 984 L 284.5 987 L 311.5 987 L 312.5 986 L 319.5 986 L 329.5 984 L 341.5 980 Q 362 971 376 955.5 L 389 937.5 L 401 912.5 L 409 884.5 L 412 868.5 L 412 860.5 L 413 859.5 L 413 502.5 L 410.5 502 L 273.5 502 L 272.5 503 L 271 501.5 L 271 463 Z " /><path fill="rgb(39,74,37)" stroke="rgb(39,74,37)" stroke-width="1" opacity="0.9372549019607843" d="M 469 466 L 677.5 466 L 679 467.5 L 678 468.5 L 678 500 L 503 500 L 503 603 L 622.5 603 L 624 604.5 L 624 635.5 L 622.5 637 L 503 637 L 503 741 L 677.5 741 L 678 741.5 L 678 771.5 Q 680.3 772.8 677.5 774 L 469 774 L 469 466 Z " /><path fill="rgb(39,74,37)" stroke="rgb(39,74,37)" stroke-width="1" opacity="0.9372549019607843" d="M 707.5 466 Q 721.6 465.4 726 474.5 L 886.5 704 L 887 478.5 L 893.5 469 Q 897.6 465.1 906.5 466 L 916 471.5 L 920 479.5 L 920 761.5 Q 918.2 768.7 912.5 772 Q 908.1 775.1 899.5 774 Q 892.3 772.2 889 766.5 L 728.5 537 L 728 760.5 Q 726.5 767.5 721.5 771 Q 717 775.5 706.5 774 L 698 768.5 L 694 759.5 L 694 480.5 Q 695.8 472.9 701.5 469 L 707.5 466 Z " /><path fill="rgb(39,74,37)" stroke="rgb(39,74,37)" stroke-width="1" opacity="0.9372549019607843" d="M 950.5 466 L 957.5 466 L 966 470 L 1129.5 704 L 1130 478.5 L 1135.5 470 Q 1139.5 465 1149.5 466 Q 1156.5 467.6 1160 472.5 L 1163 477.5 L 1163 762.5 L 1155.5 772 Q 1151.1 775.1 1142.5 774 Q 1136 772.5 1133 767.5 L 971.5 537 L 971 760.5 Q 969.4 767.5 964.5 771 Q 960.3 775.3 950.5 774 Q 943.3 772.2 940 766.5 L 938 762.5 L 938 477.5 L 944.5 469 L 950.5 466 Z " /><path fill="rgb(39,74,37)" stroke="rgb(39,74,37)" stroke-width="1" opacity="0.9372549019607843" d="M 473 800 L 484.5 800 L 485 800.5 L 485 917.5 L 488 932.5 L 494 945.5 L 508.5 961 Q 519.6 968.9 535.5 972 Q 540.3 970.7 541.5 973 L 571.5 973 L 585.5 970 L 599.5 964 L 614 951.5 L 623 936.5 L 627 921.5 L 627 801.5 L 628.5 800 L 638.5 800 L 639 800.5 L 639 926.5 Q 633.3 952.3 616.5 967 L 599.5 978 L 581.5 984 L 568.5 985 L 567.5 986 L 544.5 986 L 543.5 985 L 535.5 985 L 515.5 979 Q 498.6 971.9 488 958.5 L 478 941.5 L 473 922.5 L 473 800 Z " /><path fill="rgb(39,74,37)" stroke="rgb(39,74,37)" stroke-width="1" opacity="0.9372549019607843" d="M 651.5 800 Q 657.9 800.7 660 805.5 L 780.5 961 L 781 801.5 L 782.5 800 L 792.5 800 L 794 801.5 L 794 980.5 L 792 985 L 785.5 986 L 782 983.5 L 659.5 825 L 659 986 L 646.5 986 L 646 985.5 L 646 805.5 L 649.5 801 L 651.5 800 Z " /><path fill="rgb(39,74,37)" stroke="rgb(39,74,37)" stroke-width="1" opacity="0.9372549019607843" d="M 876.5 800 L 891.5 801 L 903.5 804 Q 921.8 811.2 934 824.5 Q 946.9 838.1 954 857.5 L 959 878.5 L 960 898.5 L 959 899.5 L 958 914.5 L 950 938.5 Q 941.3 956.8 926.5 969 Q 914.7 978.7 898.5 984 L 888.5 986 L 872.5 986 Q 839.9 980.1 823 958.5 Q 812 946 806 928.5 L 802 913.5 L 800 892.5 L 801 891.5 L 802 872.5 L 808 852.5 L 816 837.5 L 827 823 L 849.5 807 L 856.5 804 L 876.5 800 Z M 872 813 Q 852 817 841 828 Q 827 839 820 857 L 816 868 L 813 884 L 813 904 L 816 919 Q 821 936 831 949 Q 844 967 870 973 L 891 973 L 895 972 Q 908 969 917 961 Q 928 952 936 939 L 944 920 L 947 904 L 947 884 L 944 868 Q 939 849 928 837 Q 918 824 903 817 L 889 813 L 872 813 Z " /><path fill="rgb(39,74,37)" stroke="rgb(39,74,37)" stroke-width="1" opacity="0.9372549019607843" d="M 967 800 L 1015.5 800 L 1044.5 805 Q 1078.7 814.3 1098 838.5 Q 1106.6 849.4 1112 863.5 L 1116 878.5 L 1118 904.5 L 1117 905.5 L 1117 915.5 L 1115 926.5 L 1110 940.5 Q 1103.9 952.9 1094.5 962 Q 1076.5 979.5 1046.5 985 Q 1041 983.5 1039.5 986 L 967 986 L 967 800 Z M 979 813 L 979 973 L 1043 973 Q 1067 969 1083 956 Q 1093 948 1099 935 L 1103 923 L 1104 912 L 1105 911 Q 1107 865 1086 844 Q 1069 825 1042 817 L 1022 813 L 979 813 Z " /><path fill="rgb(0,0,0)" stroke="rgb(0,0,0)" stroke-width="1" opacity="0" d="M 0 0 L 1400 0 L 1400 1400 L 0 1400 L 0 0 Z M 1171 382 Q 1154 397 1143 419 L 1143 429 Q 1146 431 1145 438 L 1157 463 L 1160 444 L 1164 432 L 1169 424 L 1172 409 L 1172 383 L 1171 382 Z M 1235 394 Q 1201 402 1180 421 Q 1171 429 1165 440 L 1161 451 L 1160 466 L 1166 465 L 1169 474 Q 1174 480 1183 484 L 1199 488 Q 1208 489 1213 485 Q 1233 467 1246 442 L 1216 457 L 1205 461 L 1187 465 L 1173 465 L 1171 466 L 1173 464 L 1181 463 L 1195 458 L 1204 452 L 1218 435 L 1238 396 Q 1239 393 1235 394 Z M 271 463 L 271 502 L 273 503 L 274 502 L 411 502 L 413 503 L 413 860 L 412 861 L 412 869 L 409 885 L 401 913 L 389 938 L 376 956 Q 362 971 342 980 L 330 984 L 320 986 L 313 986 L 312 987 L 285 987 L 268 984 L 246 975 L 225 960 L 207 936 L 197 915 L 190 893 L 185 868 L 184 850 L 183 849 L 183 790 L 182 788 L 181 789 L 144 789 L 144 857 L 145 858 L 145 866 L 146 867 L 146 874 L 149 891 L 155 914 L 164 938 Q 174 961 190 980 Q 210 1003 240 1016 L 262 1023 L 272 1025 L 279 1025 L 280 1026 L 290 1026 L 291 1027 L 318 1026 L 344 1021 Q 371 1013 391 996 L 415 970 L 432 941 L 440 921 L 445 904 L 451 874 L 452 857 L 453 856 L 453 463 L 271 463 Z M 469 466 L 469 774 L 678 774 Q 680 773 678 772 L 678 742 L 678 741 L 503 741 L 503 637 L 623 637 L 624 636 L 624 605 L 623 603 L 503 603 L 503 500 L 678 500 L 678 469 L 679 468 L 678 466 L 469 466 Z M 708 466 L 702 469 Q 696 473 694 481 L 694 760 L 698 769 L 707 774 Q 717 776 722 771 Q 726 767 728 761 L 729 537 L 889 767 Q 892 772 900 774 Q 908 775 913 772 Q 918 769 920 762 L 920 480 L 916 472 L 907 466 Q 898 465 894 469 L 887 479 L 887 704 L 726 475 Q 722 465 708 466 Z M 951 466 L 945 469 L 938 478 L 938 763 L 940 767 Q 943 772 951 774 Q 960 775 965 771 Q 969 767 971 761 L 972 537 L 1133 768 Q 1136 772 1143 774 Q 1151 775 1156 772 L 1163 763 L 1163 478 L 1160 473 Q 1156 468 1150 466 Q 1140 465 1136 470 L 1130 479 L 1130 704 L 966 470 L 958 466 L 951 466 Z M 473 800 L 473 923 L 478 942 L 488 959 Q 499 972 516 979 L 536 985 L 544 985 L 545 986 L 568 986 L 569 985 L 582 984 L 600 978 L 617 967 Q 633 952 639 927 L 639 801 L 639 800 L 629 800 L 627 802 L 627 922 L 623 937 L 614 952 L 600 964 L 586 970 L 572 973 L 542 973 Q 540 971 536 972 Q 520 969 509 961 L 494 946 L 488 933 L 485 918 L 485 801 L 485 800 L 473 800 Z M 652 800 L 650 801 L 646 806 L 646 986 L 647 986 L 659 986 L 660 825 L 782 984 L 786 986 L 792 985 L 794 981 L 794 802 L 793 800 L 783 800 L 781 802 L 781 961 L 660 806 Q 658 801 652 800 Z M 877 800 L 857 804 L 850 807 L 827 823 L 816 838 L 808 853 L 802 873 L 801 892 L 800 893 L 802 914 L 806 929 Q 812 946 823 959 Q 840 980 873 986 L 889 986 L 899 984 Q 915 979 927 969 Q 941 957 950 939 L 958 915 L 959 900 L 960 899 L 959 879 L 954 858 Q 947 838 934 825 Q 922 811 904 804 L 892 801 L 877 800 Z M 967 800 L 967 986 L 1040 986 Q 1041 984 1047 985 Q 1077 980 1095 962 Q 1104 953 1110 941 L 1115 927 L 1117 916 L 1117 906 L 1118 905 L 1116 879 L 1112 864 Q 1107 849 1098 839 Q 1079 814 1045 805 L 1016 800 L 967 800 Z " /><path fill="rgb(0,0,0)" stroke="rgb(0,0,0)" stroke-width="1" opacity="0" d="M 871.5 813 L 888.5 813 L 902.5 817 Q 917.8 824.2 928 836.5 Q 938.6 849.4 944 867.5 L 947 883.5 L 947 903.5 L 944 919.5 L 936 938.5 Q 928.4 951.9 916.5 961 Q 907.5 968.5 894.5 972 L 890.5 973 L 869.5 973 Q 844.4 966.6 831 948.5 Q 820.9 936.1 816 918.5 L 813 903.5 L 813 883.5 L 816 867.5 L 820 856.5 Q 827.3 839.3 840.5 828 Q 852.3 816.8 871.5 813 Z " /><path fill="rgb(0,0,0)" stroke="rgb(0,0,0)" stroke-width="1" opacity="0" d="M 979 813 L 1021.5 813 L 1041.5 817 Q 1069.1 824.9 1086 843.5 Q 1107.2 865.3 1105 910.5 L 1104 911.5 L 1103 922.5 L 1099 934.5 Q 1093 947.5 1082.5 956 Q 1066.9 968.9 1042.5 973 L 979 973 L 979 813 Z " /></svg>